<?xml version="1.0" encoding="utf-8"?>
<!-- Generator: Adobe Illustrator 26.5.0, SVG Export Plug-In . SVG Version: 6.00 Build 0)  -->
<svg version="1.1" id="Layer_1" xmlns="http://www.w3.org/2000/svg" xmlns:xlink="http://www.w3.org/1999/xlink" x="0px" y="0px"
	 viewBox="0 0 216 216" style="enable-background:new 0 0 216 216;" xml:space="preserve">
<style type="text/css">
	.st0{fill:#FFFFFF;}
</style>
<path class="st0" d="M108,1C49.2,1,1.4,48.7,1.4,107.6c0,58.9,47.7,106.6,106.6,106.6c58.9,0,106.6-47.7,106.6-106.6
	C214.6,48.7,166.9,1,108,1z M96.3,140.9c-2.5,4.5-5.8,8-9.9,10.4c-4.1,2.5-8.5,3.7-13.2,3.7c-12.1,0-22.9-6.6-32.3-19.8L54,122
	c3,3.1,5.4,5.4,6.9,6.7c2.2,1.8,4.5,2.7,6.9,2.7c2.7,0,4.7-0.8,6.1-2.5c1.4-1.7,2.1-3.6,2.1-5.7c0-3.6-0.7-7.3-2.2-11
	c-1.5-3.8-3.3-7.6-5.5-11.5c-2.2-3.9-4.6-7.8-7.2-11.8c-2.5-4-5-7.9-7.2-11.9c-2.3-4-4.2-7.9-5.7-11.8c-1.5-3.9-2.2-7.7-2.2-11.5
	c0-8.6,2.3-15.6,6.8-20.9c4.5-5.4,11-8,19.4-8c9.8,0,18.2,4.9,25.4,14.8l-11.2,12c-1.1-1.3-2.4-2.6-3.9-4.1
	c-3.4-3.4-6.5-5.1-9.3-5.1c-2.3,0-4.1,0.9-5.4,2.6c-1.3,1.7-1.9,3.4-1.9,5.2c0,2.7,0.7,5.7,2.1,9c1.4,3.3,3.2,6.8,5.5,10.5
	c2.3,3.7,4.7,7.6,7.3,11.5c3.1,4.8,6.2,9.6,9.1,14.6c2.9,5,5.4,9.9,7.3,14.8c1.9,4.9,2.9,9.7,2.9,14.3
	C100,131.1,98.8,136.4,96.3,140.9z M168.6,112c-6.8,15.3-12.5,30.4-16.8,45.2c-4.4,14.8-7,27.3-8,37.5l-23.6-6.5
	c-7.1-17.1-12.1-34.8-15.1-53.2c-1.3-8.2-2-17-2-26.3c0-14.2,1.7-28.9,5.1-44.1c5.7,2.4,10.1,4.5,13.4,6.2
	c-0.8,6.1-1.2,12.3-1.2,18.6c0,18.9,3.2,38.3,9.7,58.5c5.8-16.7,13.1-32.8,22-48.1c8-13.9,16.9-25.7,26.6-35.6
	c4.6,2.5,8.8,5,12.4,7.4C183,83.2,175.4,96.7,168.6,112z"/>
</svg>
